HIERARCHY
ROOT pelvis
{
  OFFSET 0 0 0
  CHANNELS 6 Xposition Yposition Zposition Zrotation Xrotation Yrotation
  JOINT pelvis_right_femur
  {
    OFFSET -11.43119 -3.542788 0.2090856
    CHANNELS 3 Zrotation Xrotation Yrotation
    JOINT right_femur_tibia
    {
      OFFSET -1.028693 -40.73281 5
      CHANNELS 3 Zrotation Xrotation Yrotation
      JOINT right_tibia_foot
      {
        OFFSET -0.5013517 -42.05707 -5
        CHANNELS 3 Zrotation Xrotation Yrotation
        End Site
        {
          OFFSET 0 -5 10
        }
      }
    }
  }
  JOINT pelvis_left_femur
  {
    OFFSET 11.43119 -3.542788 0.2090856
    CHANNELS 3 Zrotation Xrotation Yrotation
    JOINT left_femur_tibia
    {
      OFFSET 1.028693 -40.73281 5
      CHANNELS 3 Zrotation Xrotation Yrotation
      JOINT left_tibia_foot
      {
        OFFSET 0.3200228 -42.98253 -5
        CHANNELS 3 Zrotation Xrotation Yrotation
        End Site
        {
          OFFSET 0 -5 10
        }
      }
    }
  }
  JOINT pelvis_spine1
  {
    OFFSET 0 8.64413 -3.209807
    CHANNELS 3 Zrotation Xrotation Yrotation
    JOINT spine1
    {
      OFFSET 0 29.53957 -1.762685
      CHANNELS 3 Zrotation Xrotation Yrotation
      JOINT spine2
      {
        OFFSET 0 16.36153 -0.1422377
        CHANNELS 3 Zrotation Xrotation Yrotation
        JOINT neck
        {
          OFFSET 0 11.60093 5
          CHANNELS 3 Zrotation Xrotation Yrotation
          End Site
          {
            OFFSET 0 20 0
          }
        }
      }
      JOINT right_manubrium
      {
        OFFSET -4.671311 15.89868 4
        CHANNELS 3 Zrotation Xrotation Yrotation
        JOINT right_clavicle
        {
          OFFSET -13.601 1.573642 -2.74176
          CHANNELS 3 Zrotation Xrotation Yrotation
          JOINT right_humerus
          {
            OFFSET -0.06331682 -27.72702 2.252146
            CHANNELS 3 Zrotation Xrotation Yrotation
            JOINT right_radius
            {
              OFFSET -0.5696302 -23.92083 0.4042105
              CHANNELS 3 Zrotation Xrotation Yrotation
              End Site
              {
                OFFSET 0 -15 0
              }
            }
          }
        }
      }
      JOINT left_manubrium
      {
        OFFSET 4.671311 15.89868 4
        CHANNELS 3 Zrotation Xrotation Yrotation
        JOINT left_clavicle
        {
          OFFSET 13.601 1.573642 -2.74176
          CHANNELS 3 Zrotation Xrotation Yrotation
          JOINT left_humerus
          {
            OFFSET 0.000209614 -29.01858 1.101395
            CHANNELS 3 Zrotation Xrotation Yrotation
            JOINT left_radius
            {
              OFFSET -0.2288314 -24.59216 1.790347
              CHANNELS 3 Zrotation Xrotation Yrotation
              End Site
              {
                OFFSET 0 -15 0
              }
            }
          }
        }
      }
    }
  }
}
MOTION
Frames: 9
Frame Time: 0.0416666666667
0.7743764 57.78353 1.522599 -6.5923 -19.55087 -5.118002 -50.54703 -59.74024 -41.26918 -180 81.89564 -180 10.96044 2.149017 2.621568 67.76891 -50.79934 53.63766 -180 71.36861 -180 -7.214434 -8.039857 -13.25811 -3.060252 20.88194 3.046704 7.961285 15.34182 -9.04514 -9.820937 9.849827 21.52814 7.044187 -25.7082 17.7055 20.97871 -10.25665 23.02941 -62.38834 -29.46427 13.77451 0 -69.60023 0 17.9547 -3.08798 28.61828 -14.98683 -49.77203 -2.180222 68.85584 -11.31407 1.672975 0 -20.96232 0 -11.93827 -14.27565 7.784227
0.7758391 57.92763 1.509921 -6.516527 -19.65346 -5.109347 -50.59399 -59.68736 -41.23168 -180 81.88118 -180 10.94891 2.172018 2.645321 67.60189 -50.73786 53.54527 -180 71.39611 -180 -7.213566 -7.997975 -13.27311 -2.999576 20.85748 3.065981 8.039146 15.33572 -9.05444 -9.602286 9.785715 20.69658 7.12581 -25.8272 16.7412 21.01022 -10.28132 23.0106 -62.34432 -29.51542 13.67887 0 -69.51909 0 18.00683 -2.821201 28.99791 -15.42467 -49.08389 -1.920121 68.35371 -11.13506 1.598666 0 -22.76793 0 -10.83267 -13.59943 7.136632
0.7732013 58.06993 1.493348 -6.409926 -19.77548 -5.088955 -50.66735 -59.62862 -41.18725 -180 81.85661 -180 10.93599 2.19449 2.669516 67.38775 -50.66238 53.43686 -180 71.43467 -180 -7.212252 -7.947464 -13.29593 -2.88941 20.8191 3.08845 8.089015 15.33162 -9.043717 -9.406199 9.70217 19.91194 7.201835 -25.94904 15.83067 21.03284 -10.30413 22.97065 -62.30307 -29.58944 13.59194 0 -69.41927 0 18.06766 -2.524336 29.37062 -16.02844 -48.23421 -1.589907 67.719 -10.94802 1.389726 0 -25.21387 0 -9.496293 -12.96146 6.343548
0.7647322 58.21066 1.472726 -6.274362 -19.91613 -5.054627 -50.7648 -59.56246 -41.13986 -180 81.82144 -180 10.92211 2.214664 2.693985 67.12621 -50.57829 53.3045 -180 71.4843 -180 -7.210354 -7.889112 -13.32252 -2.726474 20.76741 3.121068 8.081915 15.33528 -9.012692 -9.223071 9.614213 19.13032 7.273945 -26.07542 14.92247 21.05616 -10.32118 22.90882 -62.2627 -29.68244 13.50842 0 -69.3092 0 18.13728 -2.199237 29.74204 -16.84087 -47.22376 -1.1569 66.90862 -10.79278 1.007263 0 -28.50848 0 -7.925992 -12.44619 5.337352
0.7487332 58.34998 1.447895 -6.112637 -20.07409 -5.003896 -50.88137 -59.48842 -41.09065 -180 81.77612 -180 10.90765 2.231462 2.718176 66.82061 -50.48957 53.14449 -180 71.5444 -180 -7.20764 -7.823776 -13.34982 -2.514114 20.70387 3.167076 8.00345 15.35042 -8.964233 -9.048269 9.532451 18.32322 7.341676 -26.2066 13.98241 21.08543 -10.32984 22.8306 -62.22106 -29.79259 13.42686 0 -69.19148 0 18.21577 -1.848604 30.1154 -17.87244 -46.06377 -0.6127551 65.90907 -10.70743 0.4156332 0 -32.72768 0 -6.162918 -12.11008 4.082096
0.7242725 58.48815 1.418806 -5.929649 -20.24776 -4.936341 -51.00624 -59.40782 -41.03388 -180 81.72242 -180 10.89289 2.244609 2.740085 66.47874 -50.39788 52.95891 -180 71.61418 -180 -7.203475 -7.751895 -13.37657 -2.2663 20.631 3.223287 7.859751 15.37859 -8.90726 -8.887285 9.461602 17.48578 7.400511 -26.34012 13.00181 21.11913 -10.32883 22.7549 -62.17403 -29.92404 13.35352 0 -69.05618 0 18.30462 -1.473735 30.49239 -19.08945 -44.7658 0.002125923 64.74604 -10.74892 -0.4453278 0 -37.77526 0 -4.334297 -11.96101 2.566272
0.6920361 58.62578 1.385621 -5.73306 -20.43631 -4.85605 -51.12075 -59.32335 -40.95455 -180 81.66311 -180 10.8781 2.254348 2.755513 66.11128 -50.30265 52.75394 -180 71.69341 -180 -7.196515 -7.672857 -13.40318 -2.008191 20.55204 3.279861 7.674562 15.42069 -8.858408 -8.757723 9.402547 16.6316 7.440558 -26.47024 11.99034 21.14876 -10.3172 22.71902 -62.11388 -30.0901 13.30433 0 -68.87646 0 18.40851 -1.071368 30.87567 -20.41874 -43.32242 0.5902685 63.4744 -11.01866 -1.69903 0 -43.42907 0 -2.674348 -11.95485 0.7727815
0.6545919 58.76393 1.348743 -5.532318 -20.63898 -4.772019 -51.20435 -59.23831 -40.83487 -180 81.60133 -180 10.86344 2.261276 2.759792 65.72959 -50.20219 52.53729 -180 71.78194 -180 -7.185251 -7.58577 -13.43068 -1.768526 20.47026 3.324247 7.479089 15.47698 -8.836723 -8.681788 9.354423 15.78319 7.450338 -26.58992 10.96707 21.16319 -10.29408 22.76609 -62.03133 -30.30745 13.29903 0 -68.6195 0 18.53313 -0.636237 31.26801 -21.76781 -41.71358 1.035955 62.15483 -11.62637 -3.492309 0 -49.41312 0 -1.448711 -12.01074 -1.317583
0.615614 58.90389 1.308833 -5.335971 -20.85321 -4.695755 -51.24521 -59.15617 -40.66673 -180 81.54007 -180 10.84881 2.266616 2.751708 65.34361 -50.0948 52.31541 -180 71.87811 -180 -7.169307 -7.491586 -13.45857 -1.56769 20.38888 3.346961 7.299868 15.54519 -8.854277 -8.67385 9.31517 14.96297 7.423409 -26.69527 9.954327 21.15552 -10.25838 22.92227 -61.919 -30.58509 13.35171 0 -68.26605 0 18.68097 -0.1670647 31.66936 -23.05478 -39.9388 1.266486 60.83073 -12.61707 -5.896263 0 -55.45517 0 -0.8242204 -12.03695 -3.69113
